<svg width="25" height="24" viewBox="0 0 25 24" fill="none" xmlns="http://www.w3.org/2000/svg">
<path fill-rule="evenodd" clip-rule="evenodd" d="M8.83765 5.61719C4.31567 5.85296 0.756836 8.36434 0.756836 11.4277C0.756836 13.7528 2.80706 15.7599 5.77251 16.6953V17.4774V19.1991L7.27251 18.3539L8.83765 17.4721V15.7504L8.49067 15.9459L7.27251 16.6322V15.5957L6.22377 15.2648C3.52596 14.4138 2.25684 12.7888 2.25684 11.4277C2.25684 10.4785 2.83643 9.43305 4.15746 8.55584C5.32527 7.78037 6.95926 7.22983 8.83765 7.11945V5.61719Z" fill="#122C44"/>
<rect x="11.5381" y="0.749023" width="12.7111" height="22.5" rx="2.25" stroke="#122C44" stroke-width="1.5"/>
<line x1="7.56738" y1="11.249" x2="8.08759" y2="11.249" stroke="#122C44" stroke-width="1.5" stroke-linecap="round"/>
<line x1="16.6582" y1="20.249" x2="19.1986" y2="20.249" stroke="#122C44" stroke-width="1.5" stroke-linecap="round"/>
<line x1="4.53711" y1="11.249" x2="5.05731" y2="11.249" stroke="#122C44" stroke-width="1.5" stroke-linecap="round"/>
</svg>
