<svg width="24" height="24" viewBox="0 0 24 24" fill="none" xmlns="http://www.w3.org/2000/svg">
<path d="M12 22C17.5228 22 22 17.5228 22 12C22 6.47715 17.5228 2 12 2C6.47715 2 2 6.47715 2 12C2 17.5228 6.47715 22 12 22Z" stroke="#122C44" stroke-width="1.5" stroke-linecap="round" stroke-linejoin="round"/>
<path d="M9.08984 9.00057C9.32495 8.33224 9.789 7.76868 10.3998 7.4097C11.0106 7.05073 11.7287 6.91951 12.427 7.03928C13.1253 7.15906 13.7587 7.52209 14.2149 8.0641C14.6712 8.6061 14.9209 9.29209 14.9198 10.0006C14.9198 12.0006 12 13.0005 12 13.0005" stroke="#122C44" stroke-width="1.5" stroke-linecap="round" stroke-linejoin="round"/>
<path d="M11.25 14C11.25 14.4142 11.5858 14.75 12 14.75C12.4142 14.75 12.75 14.4142 12.75 14H11.25ZM11.25 13V14H12.75V13H11.25Z" fill="#122C44"/>
<path d="M12 17H12.01" stroke="#122C44" stroke-width="1.5" stroke-linecap="round" stroke-linejoin="round"/>
</svg>
